<svg width="51" height="50" viewBox="0 0 51 50" fill="none" xmlns="http://www.w3.org/2000/svg">
<rect x="0.5" width="50" height="50" rx="25" fill="#FF9000"/>
<path d="M25.5005 31.5C33.4332 31.5001 40.1867 36.1546 42.8188 42.6777C42.3057 43.1805 41.7705 43.6603 41.2153 44.1172C39.1075 38.0274 32.9658 33.5001 25.5005 33.5C18.0349 33.5 11.8914 38.0271 9.78369 44.1172C9.22859 43.6603 8.69325 43.1805 8.18018 42.6777C10.8122 36.1542 17.5675 31.5 25.5005 31.5ZM25.5005 12.75C29.5045 12.7501 32.7505 15.996 32.7505 20C32.7505 24.004 29.5045 27.2499 25.5005 27.25C21.4964 27.25 18.2505 24.0041 18.2505 20C18.2505 15.9959 21.4964 12.75 25.5005 12.75ZM25.5005 14.75C22.601 14.75 20.2505 17.1005 20.2505 20C20.2505 22.8995 22.601 25.25 25.5005 25.25C28.3999 25.2499 30.7505 22.8994 30.7505 20C30.7505 17.1006 28.3999 14.7501 25.5005 14.75Z" fill="white" stroke="white" stroke-width="0.5"/>
</svg>
